<svg width="49" height="140" viewBox="0 0 49 140" fill="none" xmlns="http://www.w3.org/2000/svg">
<rect width="49" height="140"/>
<circle cx="5" cy="5" r="5" fill="#fa413f"/>
<circle cx="44" cy="5" r="5" fill="#fa413f"/>
<circle cx="31" cy="5" r="5" fill="#fa413f"/>
<circle cx="18" cy="5" r="5" fill="#fa413f"/>
<circle cx="5" cy="70" r="5" fill="#fa413f"/>
<circle cx="44" cy="70" r="5" fill="#fa413f"/>
<circle cx="31" cy="70" r="5" fill="#fa413f"/>
<circle cx="18" cy="70" r="5" fill="#fa413f"/>
<circle cx="5" cy="57" r="5" fill="#fa413f"/>
<circle cx="44" cy="57" r="5" fill="#fa413f"/>
<circle cx="31" cy="57" r="5" fill="#fa413f"/>
<circle cx="18" cy="57" r="5" fill="#fa413f"/>
<circle cx="5" cy="44" r="5" fill="#fa413f"/>
<circle cx="44" cy="44" r="5" fill="#fa413f"/>
<circle cx="31" cy="44" r="5" fill="#fa413f"/>
<circle cx="18" cy="44" r="5" fill="#fa413f"/>
<circle cx="5" cy="31" r="5" fill="#fa413f"/>
<circle cx="44" cy="31" r="5" fill="#fa413f"/>
<circle cx="31" cy="31" r="5" fill="#fa413f"/>
<circle cx="18" cy="31" r="5" fill="#fa413f"/>
<circle cx="5" cy="18" r="5" fill="#fa413f"/>
<circle cx="44" cy="18" r="5" fill="#fa413f"/>
<circle cx="31" cy="18" r="5" fill="#fa413f"/>
<circle cx="18" cy="18" r="5" fill="#fa413f"/>
<circle cx="5" cy="83" r="5" fill="#fa413f"/>
<circle cx="44" cy="83" r="5" fill="#fa413f"/>
<circle cx="31" cy="83" r="5" fill="#fa413f"/>
<circle cx="18" cy="83" r="5" fill="#fa413f"/>
<circle cx="5" cy="135" r="5" fill="#fa413f"/>
<circle cx="44" cy="135" r="5" fill="#fa413f"/>
<circle cx="31" cy="135" r="5" fill="#fa413f"/>
<circle cx="18" cy="135" r="5" fill="#fa413f"/>
<circle cx="5" cy="122" r="5" fill="#fa413f"/>
<circle cx="44" cy="122" r="5" fill="#fa413f"/>
<circle cx="31" cy="122" r="5" fill="#fa413f"/>
<circle cx="18" cy="122" r="5" fill="#fa413f"/>
<circle cx="5" cy="109" r="5" fill="#fa413f"/>
<circle cx="44" cy="109" r="5" fill="#fa413f"/>
<circle cx="31" cy="109" r="5" fill="#fa413f"/>
<circle cx="18" cy="109" r="5" fill="#fa413f"/>
<circle cx="5" cy="96" r="5" fill="#fa413f"/>
<circle cx="44" cy="96" r="5" fill="#fa413f"/>
<circle cx="31" cy="96" r="5" fill="#fa413f"/>
<circle cx="18" cy="96" r="5" fill="#fa413f"/>
</svg>
